<?xml version="1.0" encoding="UTF-8" standalone="no"?>
<svg
   width="24"
   height="24"
   viewBox="0 0 24 24"
   fill="none"
   version="1.1"
   id="svg8"
   sodipodi:docname="alert-triangle.svg"
   inkscape:version="1.1.2 (0a00cf5339, 2022-02-04)"
   xmlns:inkscape="http://www.inkscape.org/namespaces/inkscape"
   xmlns:sodipodi="http://sodipodi.sourceforge.net/DTD/sodipodi-0.dtd"
   xmlns="http://www.w3.org/2000/svg"
   xmlns:svg="http://www.w3.org/2000/svg">
  <defs
     id="defs12" />
  <sodipodi:namedview
     id="namedview10"
     pagecolor="#ffffff"
     bordercolor="#666666"
     borderopacity="1.0"
     inkscape:pageshadow="2"
     inkscape:pageopacity="0.0"
     inkscape:pagecheckerboard="0"
     showgrid="false"
     inkscape:zoom="26.25"
     inkscape:cx="12"
     inkscape:cy="12.019048"
     inkscape:window-width="1920"
     inkscape:window-height="1041"
     inkscape:window-x="0"
     inkscape:window-y="0"
     inkscape:window-maximized="1"
     inkscape:current-layer="svg8" />
  <path
     style="color:#000000;fill:#000000;stroke-linecap:round;stroke-linejoin:round;-inkscape-stroke:none"
     d="m 12,1.8964844 c -0.515535,0 -1.023354,0.1337441 -1.472656,0.3867187 C 10.078133,2.536141 9.7029317,2.9010693 9.4355469,3.3417969 a 1.0001,1.0001 0 0 0 -0.00391,0.00391 L 0.96289063,17.486328 A 1.0001,1.0001 0 0 0 0.953125,17.5 C 0.69115331,17.95362 0.55420427,18.468424 0.55273437,18.992187 0.5512795,19.515944 0.68594454,20.031276 0.9453125,20.486328 1.2047028,20.941394 1.5798519,21.32033 2.03125,21.585937 2.4825364,21.851471 2.9955251,21.994298 3.5195313,22 a 1.0001,1.0001 0 0 0 0.00977,0 H 20.470703 a 1.0001,1.0001 0 0 0 0.0098,0 c 0.524001,-0.0057 1.036995,-0.148539 1.488281,-0.414063 0.45148,-0.265638 0.82657,-0.644741 1.085937,-1.099609 0.25929,-0.454994 0.394079,-0.97029 0.392579,-1.494141 C 23.445766,18.468462 23.308764,17.953581 23.046875,17.5 a 1.0001,1.0001 0 0 0 -0.0098,-0.01367 L 14.568359,3.3457031 a 1.0001,1.0001 0 0 0 -0.0039,-0.00391 C 14.297068,2.9010693 13.921867,2.536141 13.472656,2.2832031 13.023354,2.0302285 12.515535,1.8964844 12,1.8964844 Z m 0,2 c 0.171864,0 0.340538,0.044621 0.490234,0.1289062 0.149789,0.084342 0.27602,0.2064638 0.365235,0.3535156 l 8.458984,14.1230468 c 0.08669,0.150812 0.132314,0.32206 0.132813,0.496094 4.99e-4,0.174549 -0.04435,0.346242 -0.13086,0.498047 -0.08663,0.151931 -0.210808,0.276673 -0.361328,0.365234 C 20.804365,19.950004 20.633383,19.998102 20.458984,20 H 3.5410156 c -0.1744132,-0.0019 -0.3454007,-0.05 -0.4960937,-0.138672 -0.1505613,-0.08859 -0.2748388,-0.2135 -0.3613281,-0.365234 -0.086492,-0.151747 -0.1313445,-0.323404 -0.1308594,-0.498047 4.883e-4,-0.173997 0.046124,-0.345321 0.1328125,-0.496094 3.185e-4,-5.54e-4 -3.197e-4,-0.0014 0,-0.002 L 11.144531,4.3789062 C 11.233746,4.2318544 11.359977,4.1097324 11.509766,4.0253906 11.659462,3.9411056 11.828136,3.8964844 12,3.8964844 Z"
     id="path2" />
  <path
     style="color:#000000;fill:#000000;stroke-linecap:round;stroke-linejoin:round;-inkscape-stroke:none"
     d="m 12,8 a 1,1 0 0 0 -1,1 v 4 a 1,1 0 0 0 1,1 1,1 0 0 0 1,-1 V 9 A 1,1 0 0 0 12,8 Z"
     id="path4" />
  <path
     style="color:#000000;fill:#000000;stroke-linecap:round;stroke-linejoin:round;-inkscape-stroke:none"
     d="m 12,16 a 1,1 0 0 0 -1,1 1,1 0 0 0 1,1 h 0.0098 a 1,1 0 0 0 1,-1 1,1 0 0 0 -1,-1 z"
     id="path6" />
</svg>
