<?xml version="1.0" encoding="UTF-8" standalone="no"?>
<svg
   width="24"
   height="24"
   viewBox="0 0 24 24"
   fill="none"
   version="1.1"
   id="svg8"
   sodipodi:docname="aspect-ratio.svg"
   inkscape:version="1.1.2 (0a00cf5339, 2022-02-04)"
   xmlns:inkscape="http://www.inkscape.org/namespaces/inkscape"
   xmlns:sodipodi="http://sodipodi.sourceforge.net/DTD/sodipodi-0.dtd"
   xmlns="http://www.w3.org/2000/svg"
   xmlns:svg="http://www.w3.org/2000/svg">
  <defs
     id="defs12" />
  <sodipodi:namedview
     id="namedview10"
     pagecolor="#ffffff"
     bordercolor="#666666"
     borderopacity="1.0"
     inkscape:pageshadow="2"
     inkscape:pageopacity="0.0"
     inkscape:pagecheckerboard="0"
     showgrid="false"
     inkscape:zoom="26.25"
     inkscape:cx="12"
     inkscape:cy="12.019048"
     inkscape:window-width="1920"
     inkscape:window-height="1041"
     inkscape:window-x="0"
     inkscape:window-y="0"
     inkscape:window-maximized="1"
     inkscape:current-layer="svg8" />
  <path
     style="color:#000000;fill:#000000;stroke-linecap:round;stroke-linejoin:round;-inkscape-stroke:none"
     d="M 5,4 C 3.3549921,4 2,5.3549921 2,7 v 10 c 0,1.645023 1.3550102,3 3,3 h 14 c 1.645005,0 3,-1.354995 3,-3 V 7 C 22,5.3550102 20.645023,4 19,4 Z m 0,2 h 14 c 0.564175,0 1,0.435852 1,1 v 10 c 0,0.564193 -0.435807,1 -1,1 H 5 C 4.435852,18 4,17.564175 4,17 V 7 C 4,6.4358701 4.4358701,6 5,6 Z"
     id="path2" />
  <path
     style="color:#000000;fill:#000000;stroke-linecap:round;stroke-linejoin:round;-inkscape-stroke:none"
     d="M 7,8 A 1.0001,1.0001 0 0 0 6,9 v 3 a 1,1 0 0 0 1,1 1,1 0 0 0 1,-1 v -2 h 2 A 1,1 0 0 0 11,9 1,1 0 0 0 10,8 Z"
     id="path4" />
  <path
     style="color:#000000;fill:#000000;stroke-linecap:round;stroke-linejoin:round;-inkscape-stroke:none"
     d="m 17,11 a 1,1 0 0 0 -1,1 v 2 h -2 a 1,1 0 0 0 -1,1 1,1 0 0 0 1,1 h 3 a 1.0001,1.0001 0 0 0 1,-1 v -3 a 1,1 0 0 0 -1,-1 z"
     id="path6" />
</svg>
