<svg width="24" height="24" viewBox="0 0 24 24" fill="none" xmlns="http://www.w3.org/2000/svg">
<path d="M9 2C7.355 2 6 3.355 6 5V15C6 16.645 7.355 18 9 18H19C20.645 18 22 16.645 22 15V5C22 3.355 20.645 2 19 2H9ZM9 4H19C19.564 4 20 4.436 20 5V15C20 15.564 19.564 16 19 16H9C8.436 16 8 15.564 8 15V5C8 4.436 8.436 4 9 4Z" fill="black"/>
<path d="M5 6C3.355 6 2 7.355 2 9V19C2 20.645 3.355 22 5 22H15C16.645 22 18 20.645 18 19V17C18 16.7348 17.8946 16.4804 17.7071 16.2929C17.5196 16.1054 17.2652 16 17 16C16.7348 16 16.4804 16.1054 16.2929 16.2929C16.1054 16.4804 16 16.7348 16 17V19C16 19.564 15.564 20 15 20H5C4.436 20 4 19.564 4 19V9C4 8.436 4.436 8 5 8H7C7.26522 8 7.51957 7.89464 7.70711 7.70711C7.89464 7.51957 8 7.26522 8 7C8 6.73478 7.89464 6.48043 7.70711 6.29289C7.51957 6.10536 7.26522 6 7 6H5Z" fill="black"/>
</svg>
