<?xml version="1.0" encoding="UTF-8" standalone="no"?>
<svg
   width="24"
   height="24"
   viewBox="0 0 24 24"
   fill="none"
   version="1.1"
   id="svg16"
   sodipodi:docname="face-id.svg"
   inkscape:version="1.1.2 (0a00cf5339, 2022-02-04)"
   xmlns:inkscape="http://www.inkscape.org/namespaces/inkscape"
   xmlns:sodipodi="http://sodipodi.sourceforge.net/DTD/sodipodi-0.dtd"
   xmlns="http://www.w3.org/2000/svg"
   xmlns:svg="http://www.w3.org/2000/svg">
  <defs
     id="defs20" />
  <sodipodi:namedview
     id="namedview18"
     pagecolor="#ffffff"
     bordercolor="#666666"
     borderopacity="1.0"
     inkscape:pageshadow="2"
     inkscape:pageopacity="0.0"
     inkscape:pagecheckerboard="0"
     showgrid="false"
     inkscape:zoom="26.25"
     inkscape:cx="12"
     inkscape:cy="12.019048"
     inkscape:window-width="1920"
     inkscape:window-height="1041"
     inkscape:window-x="0"
     inkscape:window-y="0"
     inkscape:window-maximized="1"
     inkscape:current-layer="svg16" />
  <path
     style="color:#000000;fill:#000000;stroke-linecap:round;stroke-linejoin:round;-inkscape-stroke:none"
     d="M 6,3 C 5.2047416,3 4.4412465,3.316551 3.8789063,3.8789063 3.316551,4.4412465 3,5.2047416 3,6 V 8 A 1,1 0 0 0 4,9 1,1 0 0 0 5,8 V 6 C 5,5.7343994 5.1051647,5.4807678 5.2929687,5.2929687 5.4807678,5.1051647 5.7343994,5 6,5 H 8 A 1,1 0 0 0 9,4 1,1 0 0 0 8,3 Z"
     id="path2" />
  <path
     style="color:#000000;fill:#000000;stroke-linecap:round;stroke-linejoin:round;-inkscape-stroke:none"
     d="m 4,15 a 1,1 0 0 0 -1,1 v 2 c 0,0.795243 0.3165904,1.558748 0.8789063,2.121094 C 4.4412548,20.683487 5.2047542,21 6,21 H 8 A 1,1 0 0 0 9,20 1,1 0 0 0 8,19 H 6 C 5.7343869,19 5.4807594,18.894837 5.2929687,18.707031 5.1051254,18.519178 5,18.265556 5,18 V 16 A 1,1 0 0 0 4,15 Z"
     id="path4" />
  <path
     style="color:#000000;fill:#000000;stroke-linecap:round;stroke-linejoin:round;-inkscape-stroke:none"
     d="m 16,3 a 1,1 0 0 0 -1,1 1,1 0 0 0 1,1 h 2 c 0.265556,0 0.519178,0.1051254 0.707031,0.2929687 C 18.894837,5.4807594 19,5.7343869 19,6 v 2 a 1,1 0 0 0 1,1 1,1 0 0 0 1,-1 V 6 C 21,5.2047542 20.683487,4.4412548 20.121094,3.8789063 19.558748,3.3165904 18.795243,3 18,3 Z"
     id="path6" />
  <path
     style="color:#000000;fill:#000000;stroke-linecap:round;stroke-linejoin:round;-inkscape-stroke:none"
     d="m 20,15 a 1,1 0 0 0 -1,1 v 2 c 0,0.265568 -0.105124,0.519186 -0.292969,0.707031 C 18.519186,18.894876 18.265568,19 18,19 h -2 a 1,1 0 0 0 -1,1 1,1 0 0 0 1,1 h 2 c 0.795231,0 1.55874,-0.316552 2.121094,-0.878906 C 20.683448,19.55874 21,18.795231 21,18 v -2 a 1,1 0 0 0 -1,-1 z"
     id="path8" />
  <path
     style="color:#000000;fill:#000000;stroke-linecap:round;stroke-linejoin:round;-inkscape-stroke:none"
     d="m 9,9 a 1,1 0 0 0 -1,1 1,1 0 0 0 1,1 h 0.00977 A 1,1 0 0 0 10.009766,10 1,1 0 0 0 9.0097656,9 Z"
     id="path10" />
  <path
     style="color:#000000;fill:#000000;stroke-linecap:round;stroke-linejoin:round;-inkscape-stroke:none"
     d="m 15,9 a 1,1 0 0 0 -1,1 1,1 0 0 0 1,1 h 0.0098 a 1,1 0 0 0 1,-1 1,1 0 0 0 -1,-1 z"
     id="path12" />
  <path
     style="color:#000000;fill:#000000;stroke-linecap:round;stroke-linejoin:round;-inkscape-stroke:none"
     d="m 8.8007813,14.285156 a 1,1 0 0 0 -0.015625,1.414063 c 0.4189636,0.427603 0.9187902,0.768075 1.4707027,1 0.551977,0.231951 1.145523,0.351562 1.744141,0.351562 0.598618,0 1.192164,-0.119611 1.744141,-0.351562 0.551923,-0.231929 1.051747,-0.572432 1.470703,-1 a 1,1 0 0 0 -0.01563,-1.414063 1,1 0 0 0 -1.414063,0.01563 c -0.232844,0.237631 -0.50973,0.425817 -0.816406,0.554688 -0.306622,0.128848 -0.636169,0.195312 -0.96875,0.195312 -0.332581,0 -0.662128,-0.06646 -0.96875,-0.195312 -0.306686,-0.128876 -0.583611,-0.317092 -0.816406,-0.554688 a 1,1 0 0 0 -1.4140627,-0.01563 z"
     id="path14" />
</svg>
