<svg width="24" height="24" viewBox="0 0 24 24" fill="none" xmlns="http://www.w3.org/2000/svg">
<path d="M21 20C21 20.2652 20.8946 20.5196 20.7071 20.7071C20.5196 20.8946 20.2652 21 20 21H4C3.73478 21 3.48043 20.8946 3.29289 20.7071C3.10536 20.5196 3 20.2652 3 20V9.48997C2.99989 9.33758 3.03462 9.18718 3.10152 9.05027C3.16841 8.91335 3.26572 8.79353 3.386 8.69997L11.386 2.47797C11.5615 2.34141 11.7776 2.26727 12 2.26727C12.2224 2.26727 12.4385 2.34141 12.614 2.47797L20.614 8.69997C20.7343 8.79353 20.8316 8.91335 20.8985 9.05027C20.9654 9.18718 21.0001 9.33758 21 9.48997V20ZM19 19V9.97797L12 4.53397L5 9.97797V19H19Z" fill="black"/>
</svg>
