<?xml version="1.0" encoding="UTF-8" standalone="no"?>
<svg
   width="24"
   height="24"
   viewBox="0 0 24 24"
   fill="none"
   version="1.1"
   id="svg12"
   sodipodi:docname="language.svg"
   inkscape:version="1.1.2 (0a00cf5339, 2022-02-04)"
   xmlns:inkscape="http://www.inkscape.org/namespaces/inkscape"
   xmlns:sodipodi="http://sodipodi.sourceforge.net/DTD/sodipodi-0.dtd"
   xmlns="http://www.w3.org/2000/svg"
   xmlns:svg="http://www.w3.org/2000/svg">
  <defs
     id="defs16" />
  <sodipodi:namedview
     id="namedview14"
     pagecolor="#ffffff"
     bordercolor="#666666"
     borderopacity="1.0"
     inkscape:pageshadow="2"
     inkscape:pageopacity="0.0"
     inkscape:pagecheckerboard="0"
     showgrid="false"
     inkscape:zoom="26.25"
     inkscape:cx="12"
     inkscape:cy="12.019048"
     inkscape:window-width="1920"
     inkscape:window-height="1041"
     inkscape:window-x="0"
     inkscape:window-y="0"
     inkscape:window-maximized="1"
     inkscape:current-layer="svg12" />
  <path
     style="color:#000000;fill:#000000;stroke-linecap:round;stroke-linejoin:round;-inkscape-stroke:none"
     d="M 4,4 A 1,1 0 0 0 3,5 1,1 0 0 0 4,6 h 7 A 1,1 0 0 0 12,5 1,1 0 0 0 11,4 Z"
     id="path840" />
  <path
     style="color:#000000;fill:#000000;stroke-linecap:round;stroke-linejoin:round;-inkscape-stroke:none"
     d="M 9,2 A 1,1 0 0 0 8,3 V 5 C 8,7.0400678 7.4712263,8.8730344 6.6875,10.126953 5.9037737,11.380872 4.948047,12 4,12 a 1,1 0 0 0 -1,1 1,1 0 0 0 1,1 C 5.8129502,14 7.3567906,12.829078 8.3828125,11.1875 9.4088344,9.5459216 10,7.3779278 10,5 V 3 A 1,1 0 0 0 9,2 Z"
     id="path843" />
  <path
     style="color:#000000;fill:#000000;stroke-linecap:round;stroke-linejoin:round;-inkscape-stroke:none"
     d="M 5.0019531,8 A 1,1 0 0 0 4,8.9980469 C 3.9978566,10.529849 5.0371964,11.796428 6.4316406,12.628906 7.8260848,13.461384 9.6514864,13.950311 11.675781,14 A 1,1 0 0 0 12.699219,13.025391 1,1 0 0 0 11.724609,12 C 10.000908,11.957689 8.4743815,11.518677 7.4550781,10.910156 6.4357748,10.301636 5.9991434,9.6141485 6,9.0019531 A 1,1 0 0 0 5.0019531,8 Z"
     id="path846" />
  <path
     style="color:#000000;fill:#000000;stroke-linecap:round;stroke-linejoin:round;-inkscape-stroke:none"
     d="m 16,10 a 1.0001,1.0001 0 0 0 -0.914062,0.59375 l -4,9 a 1,1 0 0 0 0.507812,1.320312 1,1 0 0 0 1.320313,-0.507812 L 16,13.462891 19.085937,20.40625 a 1,1 0 0 0 1.320313,0.507812 1,1 0 0 0 0.507812,-1.320312 l -4,-9 A 1.0001,1.0001 0 0 0 16,10 Z"
     id="path849" />
  <path
     style="color:#000000;fill:#000000;stroke-linecap:round;stroke-linejoin:round;-inkscape-stroke:none"
     d="m 12.900391,17 a 1,1 0 0 0 -1,1 1,1 0 0 0 1,1 h 6.199218 a 1,1 0 0 0 1,-1 1,1 0 0 0 -1,-1 z"
     id="path852" />
</svg>
