<svg width="24" height="24" fill="none" xmlns="http://www.w3.org/2000/svg"><path style="color:#000;fill:#000;stroke-linecap:round;stroke-linejoin:round;-inkscape-stroke:none" d="m17.469 2.469-9 9A.75.75 0 0 0 8.25 12v3a.75.75 0 0 0 .75.75h3a.75.75 0 0 0 .531-.219l9-9a.75.75 0 0 0 0-1.062l-3-3a.75.75 0 0 0-1.062 0zM18 4.063 19.938 6l-8.25 8.25H9.75v-1.94z"/><path style="color:#000;fill:#000;stroke-linecap:round;stroke-linejoin:round;-inkscape-stroke:none" d="M15.75 4.5a.75.75 0 0 0-.531.219.75.75 0 0 0 0 1.062l3 3a.75.75 0 0 0 1.062 0 .75.75 0 0 0 0-1.062l-3-3a.75.75 0 0 0-.531-.219Z"/><path style="color:#000;fill:#000;stroke-linecap:round;stroke-linejoin:round;-inkscape-stroke:none" d="M4.5 3A1.5 1.5 0 0 0 3 4.5v15A1.5 1.5 0 0 0 4.5 21h15a1.5 1.5 0 0 0 1.5-1.5v-8.25a.75.75 0 0 0-.75-.75.75.75 0 0 0-.75.75v8.25h-15v-15h8.25a.75.75 0 0 0 .75-.75.75.75 0 0 0-.75-.75Z"/></svg>