<?xml version="1.0" encoding="UTF-8" standalone="no"?>
<svg
   width="24"
   height="24"
   viewBox="0 0 24 24"
   fill="none"
   version="1.1"
   id="svg10"
   sodipodi:docname="photo.svg"
   inkscape:version="1.1.2 (0a00cf5339, 2022-02-04)"
   xmlns:inkscape="http://www.inkscape.org/namespaces/inkscape"
   xmlns:sodipodi="http://sodipodi.sourceforge.net/DTD/sodipodi-0.dtd"
   xmlns="http://www.w3.org/2000/svg"
   xmlns:svg="http://www.w3.org/2000/svg">
  <defs
     id="defs14" />
  <sodipodi:namedview
     id="namedview12"
     pagecolor="#ffffff"
     bordercolor="#666666"
     borderopacity="1.0"
     inkscape:pageshadow="2"
     inkscape:pageopacity="0.0"
     inkscape:pagecheckerboard="0"
     showgrid="false"
     inkscape:zoom="26.25"
     inkscape:cx="12"
     inkscape:cy="12.019048"
     inkscape:window-width="1920"
     inkscape:window-height="1041"
     inkscape:window-x="0"
     inkscape:window-y="0"
     inkscape:window-maximized="1"
     inkscape:current-layer="svg10" />
  <path
     style="color:#000000;fill:#000000;stroke-linecap:round;stroke-linejoin:round;-inkscape-stroke:none"
     d="M 15,7.25 A 0.75,0.75 0 0 0 14.25,8 0.75,0.75 0 0 0 15,8.75 h 0.0098 a 0.75,0.75 0 0 0 0.75,-0.75 0.75,0.75 0 0 0 -0.75,-0.75 z"
     id="path2" />
  <path
     style="color:#000000;fill:#000000;stroke-linecap:round;stroke-linejoin:round;-inkscape-stroke:none"
     d="M 7,3.25 C 4.9378197,3.25 3.25,4.9378197 3.25,7 v 10 c 0,2.062218 1.6878347,3.75 3.75,3.75 h 10 c 2.062203,0 3.75,-1.687797 3.75,-3.75 V 7 C 20.75,4.9378347 19.062218,3.25 17,3.25 Z m 0,1.5 h 10 c 1.251579,0 2.25,0.9984686 2.25,2.25 v 10 c 0,1.251594 -0.998406,2.25 -2.25,2.25 H 7 C 5.7484686,19.25 4.75,18.251579 4.75,17 V 7 C 4.75,5.7484837 5.7484837,4.75 7,4.75 Z"
     id="path4" />
  <path
     style="color:#000000;fill:#000000;stroke-linecap:round;stroke-linejoin:round;-inkscape-stroke:none"
     d="m 9.5,9.5800781 c -0.7460316,0 -1.4540775,0.3348526 -2.0195313,0.8789059 a 0.750075,0.750075 0 0 0 -0.011719,0.0098 l -4,4 a 0.75,0.75 0 0 0 0,1.0625 0.75,0.75 0 0 0 1.0625,0 l 3.9882813,-3.990234 0.00391,-0.002 C 8.8685411,11.208519 9.1940506,11.080078 9.5,11.080078 c 0.3059353,0 0.631394,0.128408 0.976563,0.458985 l 4.992187,4.992187 a 0.75,0.75 0 0 0 1.0625,0 0.75,0.75 0 0 0 0,-1.0625 l -5,-5 a 0.750075,0.750075 0 0 0 -0.01172,-0.0098 C 10.954063,9.9149645 10.246026,9.5800781 9.5,9.5800781 Z"
     id="path6" />
  <path
     style="color:#000000;fill:#000000;stroke-linecap:round;stroke-linejoin:round;-inkscape-stroke:none"
     d="m 16.5,11.580078 c -0.746026,0 -1.454063,0.334886 -2.019531,0.878906 a 0.750075,0.750075 0 0 0 -0.01172,0.0098 l -1,1 a 0.75,0.75 0 0 0 0,1.0625 0.75,0.75 0 0 0 1.0625,0 l 0.988281,-0.990234 0.0039,-0.002 c 0.345168,-0.330577 0.670627,-0.458985 0.976562,-0.458985 0.305935,0 0.631394,0.128408 0.976562,0.458985 l 1.992188,1.992187 a 0.75,0.75 0 0 0 1.0625,0 0.75,0.75 0 0 0 0,-1.0625 l -2,-2 a 0.750075,0.750075 0 0 0 -0.01172,-0.0098 C 17.954063,11.914964 17.246026,11.580078 16.5,11.580078 Z"
     id="path8" />
</svg>
