<?xml version="1.0" encoding="UTF-8" standalone="no"?>
<svg
   width="24"
   height="24"
   viewBox="0 0 24 24"
   fill="none"
   version="1.1"
   id="svg10"
   sodipodi:docname="picture-in-picture-on.svg"
   inkscape:version="1.1.2 (0a00cf5339, 2022-02-04)"
   xmlns:inkscape="http://www.inkscape.org/namespaces/inkscape"
   xmlns:sodipodi="http://sodipodi.sourceforge.net/DTD/sodipodi-0.dtd"
   xmlns="http://www.w3.org/2000/svg"
   xmlns:svg="http://www.w3.org/2000/svg">
  <defs
     id="defs14" />
  <sodipodi:namedview
     id="namedview12"
     pagecolor="#ffffff"
     bordercolor="#666666"
     borderopacity="1.0"
     inkscape:pageshadow="2"
     inkscape:pageopacity="0.0"
     inkscape:pagecheckerboard="0"
     showgrid="false"
     inkscape:zoom="26.25"
     inkscape:cx="12"
     inkscape:cy="12.019048"
     inkscape:window-width="1920"
     inkscape:window-height="1041"
     inkscape:window-x="0"
     inkscape:window-y="0"
     inkscape:window-maximized="1"
     inkscape:current-layer="svg10" />
  <path
     style="color:#000000;fill:#000000;stroke-linecap:round;stroke-linejoin:round;-inkscape-stroke:none"
     d="M 5,4 C 4.2047416,4 3.4412465,4.316551 2.8789063,4.8789062 2.316551,5.4412465 2,6.2047416 2,7 v 10 c 0,0.795243 0.3165904,1.558748 0.8789063,2.121094 C 3.4412548,19.683487 4.2047542,20 5,20 h 6 a 1,1 0 0 0 1,-1 1,1 0 0 0 -1,-1 H 5 C 4.7343869,18 4.4807594,17.894837 4.2929687,17.707031 4.1051254,17.519178 4,17.265556 4,17 V 7 C 4,6.7343994 4.1051647,6.4807678 4.2929687,6.2929687 4.4807678,6.1051647 4.7343994,6 5,6 h 14 c 0.265556,0 0.519178,0.1051254 0.707031,0.2929687 C 19.894837,6.4807594 20,6.7343869 20,7 v 4 a 1,1 0 0 0 1,1 1,1 0 0 0 1,-1 V 7 C 22,6.2047542 21.683487,5.4412548 21.121094,4.8789062 20.558748,4.3165904 19.795243,4 19,4 Z"
     id="path2" />
  <path
     style="color:#000000;fill:#000000;stroke-linecap:round;stroke-linejoin:round;-inkscape-stroke:none"
     d="m 15,13 c -1.092706,0 -2,0.907294 -2,2 v 3 c 0,1.092706 0.907294,2 2,2 h 5 c 1.092706,0 2,-0.907294 2,-2 v -3 c 0,-1.092706 -0.907294,-2 -2,-2 z m 0,2 h 5 v 3 h -5 z"
     id="path4" />
  <path
     style="color:#000000;fill:#000000;stroke-linecap:round;stroke-linejoin:round;-inkscape-stroke:none"
     d="m 7,8 a 1,1 0 0 0 -0.7070313,0.2929688 1,1 0 0 0 0,1.4140625 l 4.0000003,3.9999997 a 1,1 0 0 0 1.414062,0 1,1 0 0 0 0,-1.414062 L 7.7070312,8.2929688 A 1,1 0 0 0 7,8 Z"
     id="path6" />
  <path
     style="color:#000000;fill:#000000;stroke-linecap:round;stroke-linejoin:round;-inkscape-stroke:none"
     d="m 11,9 a 1,1 0 0 0 -1,1 v 2 H 8 a 1,1 0 0 0 -1,1 1,1 0 0 0 1,1 h 3 a 1.0001,1.0001 0 0 0 1,-1 V 10 A 1,1 0 0 0 11,9 Z"
     id="path8" />
</svg>
