<?xml version="1.0" encoding="UTF-8" standalone="no"?>
<svg
   width="24"
   height="24"
   viewBox="0 0 24 24"
   fill="none"
   version="1.1"
   id="svg6"
   sodipodi:docname="search.svg"
   inkscape:version="1.1.2 (0a00cf5339, 2022-02-04)"
   xmlns:inkscape="http://www.inkscape.org/namespaces/inkscape"
   xmlns:sodipodi="http://sodipodi.sourceforge.net/DTD/sodipodi-0.dtd"
   xmlns="http://www.w3.org/2000/svg"
   xmlns:svg="http://www.w3.org/2000/svg">
  <defs
     id="defs10" />
  <sodipodi:namedview
     id="namedview8"
     pagecolor="#ffffff"
     bordercolor="#666666"
     borderopacity="1.0"
     inkscape:pageshadow="2"
     inkscape:pageopacity="0.0"
     inkscape:pagecheckerboard="0"
     showgrid="false"
     inkscape:zoom="26.25"
     inkscape:cx="12"
     inkscape:cy="12.019048"
     inkscape:window-width="1920"
     inkscape:window-height="1041"
     inkscape:window-x="0"
     inkscape:window-y="0"
     inkscape:window-maximized="1"
     inkscape:current-layer="svg6" />
  <path
     style="color:#000000;fill:#000000;stroke-linecap:round;stroke-linejoin:round;-inkscape-stroke:none"
     d="m 10,2 c -4.4064267,0 -8,3.5935733 -8,8 0,4.406435 3.593575,8 8,8 4.406434,0 8,-3.593566 8,-8 0,-4.406425 -3.593565,-8 -8,-8 z m 0,2 c 3.325557,0 6,2.6744527 6,6 0,3.325559 -2.674441,6 -6,6 C 6.6744527,16 4,13.325557 4,10 4,6.6744545 6.6744545,4 10,4 Z"
     id="path2" />
  <path
     style="color:#000000;fill:#000000;stroke-linecap:round;stroke-linejoin:round;-inkscape-stroke:none"
     d="m 15,14 a 1,1 0 0 0 -0.707031,0.292969 1,1 0 0 0 0,1.414062 l 6,6 a 1,1 0 0 0 1.414062,0 1,1 0 0 0 0,-1.414062 l -6,-6 A 1,1 0 0 0 15,14 Z"
     id="path4" />
</svg>
