<svg width="24" height="24" viewBox="0 0 24 24" fill="none" xmlns="http://www.w3.org/2000/svg">
<path d="M2.19322 3.56232H21.6847C22.0604 3.56174 22.4283 3.67003 22.7438 3.87412C23.0593 4.0782 23.3089 4.36933 23.4624 4.71229C23.616 5.05524 23.6668 5.43534 23.6089 5.8066C23.551 6.17786 23.3867 6.52438 23.136 6.80425L13.4959 19.6662C13.3144 19.9063 13.0797 20.101 12.8103 20.2351C12.5408 20.3691 12.244 20.4389 11.9431 20.4389C11.6421 20.4389 11.3453 20.3691 11.0758 20.2351C10.8064 20.101 10.5717 19.9063 10.3902 19.6662L0.640947 6.66922C0.333201 6.25723 0.201527 5.73995 0.274837 5.23097C0.348147 4.72198 0.620448 4.26289 1.03195 3.9545C1.38303 3.68679 1.78812 3.5635 2.19439 3.5635L2.19322 3.56232Z" fill="#2C2C2C"/>
</svg>
