<svg t="1645200126919" class="icon" viewBox="0 0 1024 1024" version="1.1" xmlns="http://www.w3.org/2000/svg" p-id="1060" width="240" height="240"><path d="M511.76 1022.374C229.134 1022.374 0 793.51 0 511.187S229.135 0 511.76 0c282.653 0 511.788 228.864 511.788 511.187s-229.135 511.187-511.789 511.187zM509.017 79.51c-238.562 0-431.917 193.144-431.917 431.435 0 238.26 193.355 431.435 431.887 431.435s431.917-193.174 431.917-431.435c0-238.29-193.385-431.435-431.887-431.435z" fill="#2c2c2c" p-id="1061"></path><path d="M475.859 602.353c6.023 18.07 18.07 30.118 36.141 30.118s30.118-12.047 36.141-30.118l24.094-331.294c0-36.141-30.117-60.235-60.235-60.235-36.141 0-60.235 30.117-60.235 66.258l24.094 325.27zM512 692.706c-36.141 0-60.235 24.094-60.235 60.235s24.094 60.235 60.235 60.235 60.235-24.094 60.235-60.235-24.094-60.235-60.235-60.235z" fill="#2c2c2c" p-id="1062"></path></svg>